REM DIRINDEX 1\2\5,1\2\6,1\2\7,1\2\8,1\3\9,1\3\10,1\3\11,1\4\12,1\4\13,1\4\14,1\4\15,1\4\16
REM DIRNAME folder01,folder02,folder03,folder04,folder05,folder06,folder07,folder08,folder09,folder10,folder11,folder12,folder13,folder14,folder15,folder16
TITLE ""
FILE "1200_2_sec03_1063_1079.mp3" MP3
  TRACK 01 AUDIO
    TITLE "0:"
    INDEX 01 00:00:00
  TRACK 02 AUDIO
    TITLE "11:cjc034_02192"
    INDEX 01 00:00:09
  TRACK 03 AUDIO
    TITLE "0:"
    INDEX 01 00:04:52
  TRACK 04 AUDIO
    TITLE "10:cjc034_02193"
    INDEX 01 00:05:46
  TRACK 05 AUDIO
    TITLE "0:"
    INDEX 01 00:06:51
  TRACK 06 AUDIO
    TITLE "9:cjc034_02194"
    INDEX 01 00:06:61
  TRACK 07 AUDIO
    TITLE "0:"
    INDEX 01 00:07:58
  TRACK 08 AUDIO
    TITLE "10:cjc034_02195"
    INDEX 01 00:08:46
  TRACK 09 AUDIO
    TITLE "0:"
    INDEX 01 00:09:61
  TRACK 10 AUDIO
    TITLE "9:cjc034_02196"
    INDEX 01 00:09:63
  TRACK 11 AUDIO
    TITLE "0:"
    INDEX 01 00:11:01
  TRACK 12 AUDIO
    TITLE "10:cjc034_02197"
    INDEX 01 00:11:60
  TRACK 13 AUDIO
    TITLE "0:"
    INDEX 01 00:12:65
  TRACK 14 AUDIO
    TITLE "9:cjc034_02198"
    INDEX 01 00:12:69
  TRACK 15 AUDIO
    TITLE "0:"
    INDEX 01 00:14:21
  TRACK 16 AUDIO
    TITLE "10:cjc034_02199"
    INDEX 01 00:15:03
  TRACK 17 AUDIO
    TITLE "0:"
    INDEX 01 00:18:01
  TRACK 18 AUDIO
    TITLE "9:cjc034_02200"
    INDEX 01 00:18:07
  TRACK 19 AUDIO
    TITLE "0:"
    INDEX 01 00:19:38
  TRACK 20 AUDIO
    TITLE "10:cjc034_02201"
    INDEX 01 00:20:18
  TRACK 21 AUDIO
    TITLE "0:"
    INDEX 01 00:21:64
  TRACK 22 AUDIO
    TITLE "9:cjc034_02202"
    INDEX 01 00:21:66
  TRACK 23 AUDIO
    TITLE "0:"
    INDEX 01 00:23:24
  TRACK 24 AUDIO
    TITLE "10:cjc034_02203"
    INDEX 01 00:24:08
  TRACK 25 AUDIO
    TITLE "0:"
    INDEX 01 00:25:45
  TRACK 26 AUDIO
    TITLE "9:cjc034_02204"
    INDEX 01 00:25:46
  TRACK 27 AUDIO
    TITLE "0:"
    INDEX 01 00:26:73
  TRACK 28 AUDIO
    TITLE "11:cjc034_02205"
    INDEX 01 00:27:59
  TRACK 29 AUDIO
    TITLE "0:"
    INDEX 01 00:33:44
  TRACK 30 AUDIO
    TITLE "10:cjc034_02206"
    INDEX 01 00:34:26
  TRACK 31 AUDIO
    TITLE "0:"
    INDEX 01 00:35:29
  TRACK 32 AUDIO
    TITLE "9:cjc034_02207"
    INDEX 01 00:35:31
  TRACK 33 AUDIO
    TITLE "0:"
    INDEX 01 00:36:50
  TRACK 34 AUDIO
    TITLE "10:cjc034_02208"
    INDEX 01 00:37:34
  TRACK 35 AUDIO
    TITLE "0:"
    INDEX 01 00:39:62
  TRACK 36 AUDIO
    TITLE "9:cjc034_02209"
    INDEX 01 00:39:64
  TRACK 37 AUDIO
    TITLE "0:"
    INDEX 01 00:41:14
  TRACK 38 AUDIO
    TITLE "10:cjc034_02210"
    INDEX 01 00:41:71
  TRACK 39 AUDIO
    TITLE "0:"
    INDEX 01 00:43:09
  TRACK 40 AUDIO
    TITLE "9:cjc034_02211"
    INDEX 01 00:43:21
  TRACK 41 AUDIO
    TITLE "0:"
    INDEX 01 00:44:42
  TRACK 42 AUDIO
    TITLE "10:cjc034_02212"
    INDEX 01 00:45:26
  TRACK 43 AUDIO
    TITLE "0:"
    INDEX 01 00:46:27
  TRACK 44 AUDIO
    TITLE "9:cjc034_02213"
    INDEX 01 00:46:31
  TRACK 45 AUDIO
    TITLE "0:"
    INDEX 01 00:47:50
  TRACK 46 AUDIO
    TITLE "10:cjc034_02214"
    INDEX 01 00:48:36
  TRACK 47 AUDIO
    TITLE "0:"
    INDEX 01 00:49:41
  TRACK 48 AUDIO
    TITLE "9:cjc034_02215"
    INDEX 01 00:49:47
  TRACK 49 AUDIO
    TITLE "0:"
    INDEX 01 00:50:60
  TRACK 50 AUDIO
    TITLE "10:cjc034_02216"
    INDEX 01 00:51:46
  TRACK 51 AUDIO
    TITLE "0:"
    INDEX 01 00:54:40
  TRACK 52 AUDIO
    TITLE "9:cjc034_02217"
    INDEX 01 00:54:44
  TRACK 53 AUDIO
    TITLE "0:"
    INDEX 01 00:55:69
  TRACK 54 AUDIO
    TITLE "10:cjc034_02218"
    INDEX 01 00:56:53
  TRACK 55 AUDIO
    TITLE "0:"
    INDEX 01 00:59:38
  TRACK 56 AUDIO
    TITLE "9:cjc034_02219"
    INDEX 01 00:59:39
  TRACK 57 AUDIO
    TITLE "0:"
    INDEX 01 01:01:03
  TRACK 58 AUDIO
    TITLE "10:cjc034_02220"
    INDEX 01 01:01:58
  TRACK 59 AUDIO
    TITLE "0:"
    INDEX 01 01:02:63
  TRACK 60 AUDIO
    TITLE "9:cjc034_02221"
    INDEX 01 01:02:73
  TRACK 61 AUDIO
    TITLE "0:"
    INDEX 01 01:04:03
  TRACK 62 AUDIO
    TITLE "10:cjc034_02222"
    INDEX 01 01:04:64
  TRACK 63 AUDIO
    TITLE "0:"
    INDEX 01 01:05:71
  TRACK 64 AUDIO
    TITLE "9:cjc034_02223"
    INDEX 01 01:06:00
  TRACK 65 AUDIO
    TITLE "0:"
    INDEX 01 01:07:14
  TRACK 66 AUDIO
    TITLE "10:cjc034_02224"
    INDEX 01 01:07:68
  TRACK 67 AUDIO
    TITLE "0:"
    INDEX 01 01:09:03
  TRACK 68 AUDIO
    TITLE "9:cjc034_02225"
    INDEX 01 01:09:09
  TRACK 69 AUDIO
    TITLE "0:"
    INDEX 01 01:10:14
  TRACK 70 AUDIO
    TITLE "10:cjc034_02226"
    INDEX 01 01:11:00
  TRACK 71 AUDIO
    TITLE "0:"
    INDEX 01 01:12:03
  TRACK 72 AUDIO
    TITLE "9:cjc034_02227"
    INDEX 01 01:12:05
  TRACK 73 AUDIO
    TITLE "0:"
    INDEX 01 01:13:10
